<svg xmlns="http://www.w3.org/2000/svg" width="32" height="32" viewBox="0 0 32 32">
    <path fill="#C3CBD1" d="M23.178 9.333c3.422.142 6.155 2.957 6.155 6.412 0 3.541-2.87 6.412-6.411 6.412-3.463 0-6.284-2.746-6.406-6.18.01-.634.557-.834.811-.893l.127-.022.238-.043c1.73-.311 4.862-.87 5.924-1.031 1.626-.247 1.596 1.375 1.612 1.692l.002.065c0 1.275-1.034 2.308-2.308 2.308-.98 0-1.815-.611-2.15-1.472l-2.036.382c.528 1.813 2.204 3.142 4.186 3.142 2.404 0 4.36-1.956 4.36-4.36 0-2.404-1.956-4.36-4.36-4.36H9.078c-2.404 0-4.36 1.956-4.36 4.36 0 2.404 1.956 4.36 4.36 4.36 1.982 0 3.658-1.33 4.186-3.142l-2.036-.382c-.335.861-1.17 1.472-2.15 1.472-1.275 0-2.308-1.033-2.308-2.308l.002-.065c.016-.317-.014-1.939 1.612-1.692 1.113.169 4.497.774 6.161 1.074l.065.011.063.011c.254.059.802.259.811.894-.123 3.433-2.943 6.179-6.406 6.179-3.54 0-6.411-2.871-6.411-6.412 0-3.539 2.867-6.408 6.405-6.412h14.106zM15.987 19.72c.566 0 1.026.46 1.026 1.026 0 .567-.46 1.026-1.026 1.026-.567 0-1.026-.46-1.026-1.026 0-.566.46-1.026 1.026-1.026z"/>
</svg>
