<?xml version="1.0" encoding="UTF-8"?>
<svg width="248px" height="61px" viewBox="0 0 248 61" version="1.1" xmlns="http://www.w3.org/2000/svg" xmlns:xlink="http://www.w3.org/1999/xlink">
    <!-- Generator: Sketch 64 (93537) - https://sketch.com -->
    <title>img_opgglogo.0c8876d1</title>
    <desc>Created with Sketch.</desc>
    <g id="V1" stroke="none" stroke-width="1" fill="none" fill-rule="evenodd">
        <g id="aggro_gnb" transform="translate(-548.000000, -79.000000)" fill="#4C8CFF" fill-rule="nonzero">
            <g id="00_League-of-Legends" transform="translate(0.000000, 79.000000)">
                <g id="Group-14">
                    <g id="icon_opgglogo" transform="translate(548.000000, 0.000000)">
                        <path d="M30.152657,-1.94705363e-14 C46.7763629,-1.94705363e-14 60.3017205,13.6816519 60.3017205,30.4989095 C60.3017205,47.3176211 46.7763629,61 30.152657,61 C13.526795,61 1.02218429e-14,47.3176211 1.02218429e-14,30.4989095 C1.02218429e-14,13.6816519 13.526795,-1.94705363e-14 30.152657,-1.94705363e-14 Z M219.659311,0.0202836541 C228.564816,0.0202836541 236.966507,3.98032179 242.710418,10.8847613 L242.710418,10.8847613 L243.55993,11.9054872 L242.461745,12.6463131 L232.720383,19.2170538 L231.906087,19.7659484 L231.222596,19.057838 C228.141497,15.8735224 224.036958,14.3918706 219.659311,14.3918706 C210.735119,14.3918706 203.473298,21.46425 203.473298,30.4937477 C203.473298,39.5210643 210.735119,46.8660735 219.659311,46.8660735 C227.205021,46.8660735 232.210819,42.5548883 233.190418,37.7456993 L233.190418,37.7456993 L220.881832,37.7456993 L220.881832,26.8361468 L247.741371,26.8361468 C247.806055,27.5966021 247.888706,28.8027162 247.94764,30.4944747 C248.04754,33.3312782 247.897331,35.0702926 247.333145,38.4952494 C245.049093,52.3550194 234.445281,60.9643037 219.659311,60.9643037 C203.04926,60.9643037 189.537558,47.296465 189.537558,30.4937477 C189.537558,13.6903033 203.04926,0.0202836541 219.659311,0.0202836541 Z M156.399749,0.0125046183 C165.304536,0.0125046183 173.707665,3.97254276 179.449419,10.8777093 L179.449419,10.8777093 L180.298932,11.8984351 L179.201465,12.6385341 L169.459384,19.2100018 L168.645089,19.7588964 L167.961598,19.050786 C164.882654,15.8657434 160.778116,14.3848185 156.399749,14.3848185 C147.474839,14.3848185 140.213017,21.457198 140.213017,30.4866957 C140.213017,39.5132853 147.474839,46.8582945 156.399749,46.8582945 C163.944741,46.8582945 168.949102,42.5478362 169.930138,37.7386473 L169.930138,37.7386473 L157.621552,37.7386473 L157.621552,26.8283678 L184.480372,26.8283678 C184.545775,27.5888231 184.628426,28.7956641 184.68736,30.4866957 C184.78726,33.3242262 184.636332,35.0625136 184.072865,38.4881974 C181.788812,52.3472403 171.184282,60.9565246 156.399749,60.9565246 C139.790417,60.9565246 126.276559,47.288686 126.276559,30.4866957 C126.276559,13.6832513 139.790417,0.0125046183 156.399749,0.0125046183 Z M117.585085,48.5840772 C120.955823,48.5840772 123.698411,51.3576307 123.698411,54.7673202 C123.698411,58.1755557 120.955823,60.9491091 117.585085,60.9491091 C114.215784,60.9491091 111.473914,58.1755557 111.473914,54.7673202 C111.473914,51.3576307 114.215784,48.5840772 117.585085,48.5840772 Z M96.0332012,0.0126500209 C108.731326,0.0126500209 117.586522,10.1406638 117.586522,23.2537918 C117.586522,36.4352589 108.275666,46.4949336 96.0332012,46.4949336 L96.0332012,46.4949336 L79.5769542,46.4949336 L79.574798,60.9486729 L66.0487217,60.9486729 L66.0487217,0.0126500209 Z M30.1519383,14.4740957 C21.4160479,14.4740957 14.3087488,21.6635242 14.3087488,30.4996365 C14.3087488,39.3364758 21.4160479,46.5251773 30.1519383,46.5251773 C38.8856726,46.5251773 45.9929717,39.3364758 45.9929717,30.4996365 C45.9929717,21.6635242 38.8856726,14.4740957 30.1519383,14.4740957 Z M95.9663614,14.1101531 L79.5769542,14.1101531 L79.5769542,32.3974304 L95.9663614,32.3974304 C101.621152,32.3974304 103.345332,27.1287694 103.345332,23.2537918 C103.345332,19.4951362 101.621152,14.1101531 95.9663614,14.1101531 L95.9663614,14.1101531 Z" id="Combined-Shape"></path>
                    </g>
                </g>
            </g>
        </g>
    </g>
</svg>