<?xml version="1.0" encoding="utf-8"?>
<!-- Generator: Adobe Illustrator 24.0.3, SVG Export Plug-In . SVG Version: 6.00 Build 0)  -->
<svg version="1.1" id="Layer_1" xmlns="http://www.w3.org/2000/svg" xmlns:xlink="http://www.w3.org/1999/xlink" x="0px" y="0px"
	 viewBox="0 0 512 512" style="enable-background:new 0 0 512 512;" xml:space="preserve">
<style type="text/css">
	.st0{fill:#FFFFFF;}
</style>
<title>ionicons-v5_logos</title>
<path class="st0" d="M349.1,136.9c-40.3,0-57.4,19.2-85.4,19.2c-28.8,0-50.8-19.1-85.7-19.1c-34.2,0-70.7,20.9-93.8,56.4
	c-32.5,50.2-27,144.6,25.7,225.1c18.8,28.8,44,61.1,77,61.5h0.6c28.7,0,37.2-18.8,76.7-19h0.6c38.9,0,46.7,18.9,75.2,18.9h0.6
	c33-0.4,59.5-36.1,78.4-64.9c13.6-20.6,18.6-31,29-54.4c-76.2-28.9-88.4-136.9-13.1-178.3c-23-28.8-55.3-45.5-85.8-45.5L349.1,136.9
	z"/>
<path class="st0" d="M340.2,32c-24,1.6-52,16.9-68.4,36.9c-14.9,18.1-27.1,44.9-22.3,70.9h1.9c25.6,0,51.7-15.4,67-35.1
	C333.2,85.9,344.3,59.3,340.2,32z"/>
</svg>
